# Blender v3.0.1 OBJ File: ''
# www.blender.org
mtllib nr0O.mtl
o nr0.001
v 1.000000 2.499999 5.000000
v 1.000000 0.599999 4.000000
v 1.000000 0.599999 5.000000
v 1.000000 2.499999 4.000000
v 1.000000 2.500001 -4.000000
v 1.000000 0.600001 -5.000000
v 1.000000 0.600001 -4.000000
v 1.000000 2.500001 -5.000000
v 4.000000 2.499999 4.000000
v 4.000000 0.600000 1.000000
v 4.000000 0.599999 4.000000
v 4.000000 2.500000 1.000000
v 4.000000 2.500000 -1.000000
v 4.000000 0.600001 -4.000000
v 4.000000 0.600000 -1.000000
v 4.000000 2.500001 -4.000000
v -4.000000 0.599999 4.000000
v -4.000000 0.600000 1.000000
v -4.000000 2.499999 4.000000
v -4.000000 2.500000 1.000000
v -4.000000 0.600000 -1.000000
v -4.000000 0.600001 -4.000000
v -4.000000 2.500000 -1.000000
v -4.000000 2.500001 -4.000000
v -1.000000 0.599999 5.000000
v -1.000000 0.599999 4.000000
v -1.000000 2.499999 5.000000
v -1.000000 2.499999 4.000000
v -1.000000 0.600001 -4.000000
v -1.000000 0.600001 -5.000000
v -1.000000 2.500001 -4.000000
v -1.000000 2.500001 -5.000000
v -4.000000 0.600000 -1.000000
v -5.000000 2.500000 -1.000000
v -5.000000 0.600000 -1.000000
v -4.000000 2.500000 -1.000000
v 5.000000 0.600000 -1.000000
v 4.000000 2.500000 -1.000000
v 4.000000 0.600000 -1.000000
v 5.000000 2.500000 -1.000000
v -1.000000 0.600001 -4.000000
v -4.000000 2.500001 -4.000000
v -4.000000 0.600001 -4.000000
v -1.000000 2.500001 -4.000000
v 4.000000 0.600001 -4.000000
v 1.000000 2.500001 -4.000000
v 1.000000 0.600001 -4.000000
v 4.000000 2.500001 -4.000000
v -4.000000 0.599999 4.000000
v -4.000000 2.499999 4.000000
v -1.000000 0.599999 4.000000
v -1.000000 2.499999 4.000000
v 1.000000 0.599999 4.000000
v 1.000000 2.499999 4.000000
v 4.000000 0.599999 4.000000
v 4.000000 2.499999 4.000000
v -5.000000 0.600000 1.000000
v -5.000000 2.500000 1.000000
v -4.000000 0.600000 1.000000
v -4.000000 2.500000 1.000000
v 4.000000 0.600000 1.000000
v 4.000000 2.500000 1.000000
v 5.000000 0.600000 1.000000
v 5.000000 2.500000 1.000000
v -1.000000 2.499999 4.000000
v 1.000000 2.499999 5.000000
v -1.000000 2.499999 5.000000
v 1.000000 2.499999 4.000000
v -4.000000 2.500000 1.000000
v -4.000000 2.499999 4.000000
v 4.000000 2.499999 4.000000
v 4.000000 2.500000 1.000000
v -5.000000 2.500000 -1.000000
v -5.000000 2.500000 1.000000
v 5.000000 2.500000 1.000000
v -4.000000 2.500000 -1.000000
v 4.000000 2.500000 -1.000000
v 5.000000 2.500000 -1.000000
v -4.000000 2.500001 -4.000000
v -1.000000 2.500001 -4.000000
v 1.000000 2.500001 -4.000000
v 4.000000 2.500001 -4.000000
v -1.000000 2.500001 -5.000000
v 1.000000 2.500001 -5.000000
v -1.000000 0.599999 5.000000
v 1.000000 0.599999 5.000000
v -1.000000 0.599999 4.000000
v 1.000000 0.599999 4.000000
v -4.000000 0.599999 4.000000
v -4.000000 0.600000 1.000000
v 4.000000 0.599999 4.000000
v 4.000000 0.600000 1.000000
v -5.000000 0.600000 1.000000
v -5.000000 0.600000 -1.000000
v 5.000000 0.600000 1.000000
v -4.000000 0.600000 -1.000000
v 4.000000 0.600000 -1.000000
v 5.000000 0.600000 -1.000000
v -4.000000 0.600001 -4.000000
v -1.000000 0.600001 -4.000000
v 1.000000 0.600001 -4.000000
v 4.000000 0.600001 -4.000000
v -1.000000 0.600001 -5.000000
v 1.000000 0.600001 -5.000000
vt 0.507999 0.506903
vt 0.993963 1.001335
vt 0.507999 1.001335
vt 0.993963 0.506903
vt 0.506218 0.502861
vt 0.997766 0.998501
vt 0.506218 0.998501
vt 0.997766 0.502861
vt 0.002520 1.002501
vt 0.998406 0.505694
vt 0.998406 1.002501
vt 0.002520 0.505694
vt 0.000017 0.997457
vt 0.997549 0.508357
vt 0.997549 0.997457
vt 0.000017 0.508357
vt 0.000200 0.999434
vt 0.000200 0.503999
vt 1.000726 0.999434
vt 1.000726 0.503999
vt -0.002748 1.001515
vt -0.002748 0.504576
vt 1.000313 1.001515
vt 1.000314 0.504576
vt 0.462809 0.499553
vt 0.997251 0.499553
vt 0.462809 0.998635
vt 0.997251 0.998635
vt 0.500585 0.501007
vt 0.992911 0.501007
vt 0.500585 1.001369
vt 0.992911 1.001369
vt 0.501579 0.997483
vt 0.996150 0.510267
vt 0.996150 0.997483
vt 0.501579 0.510267
vt 0.571250 0.998253
vt 0.998724 0.503374
vt 0.998724 0.998253
vt 0.571250 0.503374
vt 0.001312 0.503911
vt 1.001465 0.999522
vt 0.001312 0.999522
vt 1.001465 0.503911
vt 0.000849 0.505548
vt 1.001929 1.000543
vt 0.000849 1.000543
vt 1.001929 0.505548
vt -0.003586 0.507294
vt 1.003004 0.507294
vt -0.003586 0.998520
vt 1.003004 0.998520
vt 0.003170 0.507708
vt 0.999703 0.507708
vt 0.003170 0.998011
vt 0.999703 0.998011
vt 0.491835 1.002177
vt 0.491835 0.499185
vt 0.994171 1.002177
vt 0.994171 0.499185
vt 0.537024 1.002852
vt 0.537024 0.508109
vt 0.994570 1.002852
vt 0.994570 0.508109
vt 0.781997 0.300000
vt 0.852421 0.200000
vt 0.852421 0.300000
vt 0.781997 0.200000
vt 0.570728 0.450000
vt 0.781997 0.450000
vt 0.781997 0.050000
vt 0.570728 0.050000
vt 0.429881 0.500000
vt 0.570728 0.500000
vt 0.570728 0.000000
vt 0.429881 0.450000
vt 0.429881 0.050000
vt 0.429881 0.000000
vt 0.218611 0.450000
vt 0.218611 0.300000
vt 0.218611 0.200000
vt 0.218611 0.050000
vt 0.148187 0.300000
vt 0.148187 0.200000
vt 0.839071 0.202331
vt 0.839071 0.302331
vt 0.764262 0.202331
vt 0.764262 0.302331
vt 0.764262 0.052331
vt 0.539836 0.052331
vt 0.764262 0.452331
vt 0.539836 0.452331
vt 0.539836 0.002331
vt 0.390217 0.002331
vt 0.539836 0.502331
vt 0.390217 0.052331
vt 0.390217 0.452331
vt 0.390217 0.502331
vt 0.165791 0.052331
vt 0.165791 0.202331
vt 0.165791 0.302331
vt 0.165791 0.452331
vt 0.090982 0.202331
vt 0.090982 0.302331
vn -1.0000 0.0000 0.0000
vn 1.0000 0.0000 0.0000
vn 0.0000 -0.0000 1.0000
vn 0.0000 0.0000 -1.0000
vn 0.0000 -1.0000 -0.0000
vn 0.0000 1.0000 0.0000
usemtl palette.002
s 1
f 1/1/1 2/2/1 3/3/1
f 4/4/1 2/2/1 1/1/1
f 5/5/1 6/6/1 7/7/1
f 8/8/1 6/6/1 5/5/1
f 9/9/1 10/10/1 11/11/1
f 12/12/1 10/10/1 9/9/1
f 13/13/1 14/14/1 15/15/1
f 16/16/1 14/14/1 13/13/1
f 17/17/2 18/18/2 19/19/2
f 19/19/2 18/18/2 20/20/2
f 21/21/2 22/22/2 23/23/2
f 23/23/2 22/22/2 24/24/2
f 25/25/2 26/26/2 27/27/2
f 27/27/2 26/26/2 28/28/2
f 29/29/2 30/30/2 31/31/2
f 31/31/2 30/30/2 32/32/2
f 33/33/3 34/34/3 35/35/3
f 36/36/3 34/34/3 33/33/3
f 37/37/3 38/38/3 39/39/3
f 40/40/3 38/38/3 37/37/3
f 41/41/3 42/42/3 43/43/3
f 44/44/3 42/42/3 41/41/3
f 45/45/3 46/46/3 47/47/3
f 48/48/3 46/46/3 45/45/3
f 49/49/4 50/50/4 51/51/4
f 51/51/4 50/50/4 52/52/4
f 53/53/4 54/54/4 55/55/4
f 55/55/4 54/54/4 56/56/4
f 57/57/4 58/58/4 59/59/4
f 59/59/4 58/58/4 60/60/4
f 61/61/4 62/62/4 63/63/4
f 63/63/4 62/62/4 64/64/4
f 65/65/5 66/66/5 67/67/5
f 68/68/5 66/66/5 65/65/5
f 69/69/5 65/65/5 70/70/5
f 69/69/5 71/71/5 68/68/5
f 69/69/5 68/68/5 65/65/5
f 72/72/5 71/71/5 69/69/5
f 73/73/5 69/69/5 74/74/5
f 73/73/5 75/75/5 72/72/5
f 73/73/5 72/72/5 69/69/5
f 76/76/5 75/75/5 73/73/5
f 77/77/5 75/75/5 76/76/5
f 78/78/5 75/75/5 77/77/5
f 79/79/5 77/77/5 76/76/5
f 80/80/5 77/77/5 79/79/5
f 81/81/5 77/77/5 80/80/5
f 82/82/5 77/77/5 81/81/5
f 83/83/5 81/81/5 80/80/5
f 84/84/5 81/81/5 83/83/5
f 85/85/6 86/86/6 87/87/6
f 87/87/6 86/86/6 88/88/6
f 89/89/6 87/87/6 90/90/6
f 88/88/6 91/91/6 90/90/6
f 87/87/6 88/88/6 90/90/6
f 90/90/6 91/91/6 92/92/6
f 93/93/6 90/90/6 94/94/6
f 92/92/6 95/95/6 94/94/6
f 90/90/6 92/92/6 94/94/6
f 94/94/6 95/95/6 96/96/6
f 96/96/6 95/95/6 97/97/6
f 97/97/6 95/95/6 98/98/6
f 96/96/6 97/97/6 99/99/6
f 99/99/6 97/97/6 100/100/6
f 100/100/6 97/97/6 101/101/6
f 101/101/6 97/97/6 102/102/6
f 100/100/6 101/101/6 103/103/6
f 103/103/6 101/101/6 104/104/6
